<?xml version="1.0" standalone="no"?>
<!DOCTYPE svg PUBLIC "-//W3C//DTD SVG 20010904//EN"
 "http://www.w3.org/TR/2001/REC-SVG-20010904/DTD/svg10.dtd">
<svg version="1.0" xmlns="http://www.w3.org/2000/svg"
 width="1024.000000pt" height="1024.000000pt" viewBox="0 0 1024.000000 1024.000000"
 preserveAspectRatio="xMidYMid meet">
<metadata>
Created by potrace 1.16, written by Peter Selinger 2001-2019
</metadata>
<g transform="translate(0.000000,1024.000000) scale(0.100000,-0.100000)"
fill="#000000" stroke="none">
<path d="M0 5120 l0 -5120 5120 0 5120 0 0 5120 0 5120 -5120 0 -5120 0 0
-5120z m5405 3230 c486 -59 792 -143 1164 -321 68 -32 128 -56 134 -52 5 3 7
2 4 -4 -8 -13 50 -46 65 -37 6 4 8 3 5 -3 -4 -6 15 -22 41 -36 26 -14 85 -51
131 -81 46 -31 88 -53 94 -49 5 3 7 1 3 -5 -8 -14 50 -55 65 -46 7 4 9 3 6 -3
-9 -14 19 -37 34 -27 7 4 9 3 6 -3 -8 -13 82 -85 96 -76 6 3 7 1 3 -5 -3 -6
14 -28 39 -49 25 -21 47 -36 49 -33 2 3 10 -1 19 -9 9 -7 15 -16 12 -20 -2 -4
34 -45 81 -92 46 -46 84 -80 84 -75 0 5 9 1 20 -9 11 -10 17 -21 15 -26 -3 -4
14 -30 38 -57 24 -27 56 -65 71 -85 15 -20 33 -35 39 -34 7 1 11 -4 9 -12 -4
-18 28 -52 41 -44 6 3 7 1 3 -6 -5 -7 13 -40 42 -80 28 -38 55 -79 62 -90 6
-12 16 -18 22 -15 7 4 8 3 4 -5 -10 -15 33 -83 46 -75 7 4 8 2 4 -5 -9 -14 42
-104 54 -96 6 4 7 -1 3 -11 -4 -12 -3 -15 5 -10 8 5 10 1 5 -10 -5 -13 -3 -15
7 -9 8 5 11 4 6 -3 -8 -13 44 -123 56 -116 4 3 5 -3 1 -12 -4 -12 -3 -15 5
-10 8 5 10 1 5 -10 -5 -13 -3 -15 7 -9 9 5 11 4 6 -4 -9 -15 3 -53 15 -46 5 3
6 -2 2 -11 -4 -12 -3 -15 5 -10 8 5 10 1 5 -10 -5 -13 -3 -15 7 -9 9 5 11 4 6
-4 -9 -15 3 -53 15 -46 5 3 6 -2 2 -11 -5 -13 -3 -15 7 -9 9 5 11 4 6 -3 -9
-15 34 -133 45 -126 5 3 6 -2 3 -10 -8 -22 15 -88 28 -80 7 5 8 2 4 -5 -11
-17 26 -143 37 -128 6 8 7 5 3 -7 -9 -27 4 -92 15 -74 6 8 7 -1 3 -22 -4 -27
-3 -31 5 -20 8 11 10 7 5 -20 -4 -28 -3 -32 6 -20 9 12 10 10 5 -13 -8 -37 15
-153 26 -135 5 7 6 -8 3 -37 -4 -37 -3 -46 5 -35 8 11 9 2 4 -34 -4 -31 -3
-47 4 -43 6 4 8 -15 5 -50 -4 -41 -2 -54 7 -49 9 6 10 -11 6 -71 -5 -56 -4
-74 4 -63 8 11 10 -40 10 -180 -1 -107 -4 -181 -8 -165 -5 21 -10 -7 -19 -95
-54 -527 -196 -958 -460 -1395 -387 -639 -1015 -1143 -1725 -1381 -381 -129
-683 -177 -1087 -176 -391 1 -692 48 -1050 164 -1124 364 -1992 1363 -2179
2508 -40 245 -45 307 -45 560 -1 204 3 282 19 390 11 74 20 158 20 187 0 28 2
50 5 48 3 -2 23 65 44 148 44 174 85 299 146 442 24 55 43 110 44 122 0 11 5
19 10 15 5 -3 6 2 3 12 -5 11 -3 15 5 10 8 -5 9 -2 5 10 -5 11 -3 15 5 10 8
-5 9 -2 5 10 -5 11 -3 15 5 10 8 -5 9 -2 5 10 -4 9 -3 15 2 12 11 -7 23 22 14
36 -3 6 -1 8 4 5 13 -8 26 20 16 35 -3 7 -1 8 5 4 14 -8 46 50 36 66 -5 7 -3
8 6 3 10 -6 12 -4 7 9 -4 9 -3 15 2 12 5 -4 22 15 37 41 15 27 54 87 86 136
32 48 56 93 52 99 -4 6 -3 8 3 5 14 -9 37 19 27 34 -4 7 -3 9 3 6 13 -8 35 16
31 34 -2 7 2 13 9 14 17 0 173 187 166 198 -3 6 -2 7 4 4 5 -3 61 46 124 109
62 62 110 114 105 114 -5 0 -3 7 4 15 7 9 15 13 18 11 8 -9 63 35 56 45 -3 5
0 8 7 7 7 -2 13 2 14 9 0 6 4 15 9 20 5 5 6 3 2 -4 -12 -21 4 -15 45 18 22 17
37 34 34 38 -2 4 1 8 8 8 20 0 257 170 249 178 -4 5 -2 5 4 2 15 -9 197 97
187 108 -5 4 -3 5 3 2 7 -4 72 22 145 58 349 167 698 265 1119 312 116 13 495
15 595 3z m-2605 -924 c0 -2 -8 -10 -17 -17 -16 -13 -17 -12 -4 4 13 16 21 21
21 13z m5567 -1728 c-3 -8 -6 -5 -6 6 -1 11 2 17 5 13 3 -3 4 -12 1 -19z
m-6540 -595 c-2 -21 -4 -4 -4 37 0 41 2 58 4 38 2 -21 2 -55 0 -75z m6580
-295 c-3 -8 -6 -5 -6 6 -1 11 2 17 5 13 3 -3 4 -12 1 -19z"/>
<path d="M4840 7930 c-558 -57 -1092 -274 -1520 -616 -113 -91 -360 -338 -444
-444 -284 -360 -484 -791 -565 -1220 -37 -196 -45 -292 -45 -535 0 -476 83
-828 291 -1245 226 -453 562 -832 988 -1113 159 -104 465 -254 635 -311 350
-116 776 -172 1120 -147 397 30 708 107 1041 261 394 181 738 448 1011 786
258 318 452 704 546 1084 70 280 77 345 77 680 0 332 -7 399 -66 650 -161 685
-582 1293 -1169 1689 -138 93 -170 111 -325 189 -285 142 -559 227 -899 278
-119 18 -549 27 -676 14z m2546 -1772 c140 -76 136 -279 -6 -358 -42 -23 -57
-25 -207 -28 l-162 -4 -9 -27 c-4 -14 -7 -360 -5 -776 2 -412 1 -774 -2 -802
-23 -189 -249 -260 -373 -119 -17 20 -36 52 -41 73 -7 25 -11 306 -11 823 0
695 -2 788 -16 808 -15 21 -21 22 -179 22 l-163 0 -164 -260 c-89 -143 -182
-288 -204 -323 -23 -34 -86 -132 -140 -217 l-99 -155 -5 -350 c-6 -388 -5
-382 -74 -443 -93 -81 -239 -62 -311 41 l-30 42 -5 355 -5 356 -81 124 c-395
607 -402 620 -404 675 -1 72 62 164 127 186 21 7 66 9 109 7 120 -8 109 4 394
-440 38 -60 73 -108 78 -108 5 0 17 19 28 43 10 23 74 132 142 242 69 110 172
277 230 370 118 192 141 220 197 246 38 18 73 19 700 16 602 -2 663 -4 691
-19z m-4243 -21 c21 -16 92 -114 180 -249 260 -401 358 -548 365 -548 4 0 12
10 18 23 6 12 62 101 124 197 62 96 162 252 222 345 120 187 164 239 216 256
76 25 174 -12 217 -83 20 -32 20 -57 23 -976 2 -673 -1 -955 -9 -985 -22 -83
-114 -147 -209 -147 -71 1 -164 67 -191 137 -5 14 -9 231 -9 501 0 487 -4 585
-24 579 -11 -3 -113 -153 -186 -273 -41 -67 -95 -110 -150 -119 -51 -9 -142
11 -176 37 -14 12 -74 94 -132 182 -108 165 -121 181 -135 167 -4 -4 -10 -243
-13 -532 -7 -581 -5 -560 -74 -623 -84 -75 -208 -70 -285 12 -59 62 -56 -1
-58 1045 l-2 963 27 41 c56 84 184 109 261 50z"/>
<path d="M7540 7316 c0 -2 8 -10 18 -17 15 -13 16 -12 3 4 -13 16 -21 21 -21
13z"/>
</g>
</svg>
